<svg xmlns="http://www.w3.org/2000/svg" width="512" height="384" viewBox="0 0 512 384">
  <defs>
    <linearGradient id="grassLight" x1="0" y1="0" x2="1" y2="1"><stop stop-color="#79a861"/><stop offset="1" stop-color="#72a15a"/></linearGradient>
    <linearGradient id="grassDark" x1="0" y1="0" x2="1" y2="1"><stop stop-color="#76a45d"/><stop offset="1" stop-color="#6f9e57"/></linearGradient>
    <linearGradient id="water" x1="0" y1="0" x2="0" y2="1"><stop stop-color="#4f9faf"/><stop offset="1" stop-color="#39798f"/></linearGradient>
    <linearGradient id="stone" x1="0" y1="0" x2="1" y2="1"><stop stop-color="#b8ad93"/><stop offset="1" stop-color="#968e7c"/></linearGradient>
    <pattern id="grassSpeck" width="16" height="16" patternUnits="userSpaceOnUse"><path d="M3 13l2-4 1 4m7-8 1-3 1 3" stroke="#b2ce79" stroke-width="1" fill="none" opacity=".35"/></pattern>
    <pattern id="forestSpeck" width="12" height="12" patternUnits="userSpaceOnUse"><circle cx="3" cy="4" r="1" fill="#819065" opacity=".35"/><path d="M8 10l3-3" stroke="#294d3b" opacity=".45"/></pattern>
    <pattern id="cobblePattern" width="12" height="10" patternUnits="userSpaceOnUse"><path d="M0 5h12M6 0v5M3 5v5" stroke="#766f64" stroke-width="1" opacity=".5"/><path d="M1 1h4v3H1zM7 6h4v3H7z" fill="#d3c7aa" opacity=".35"/></pattern>
    <pattern id="dirtPattern" width="13" height="11" patternUnits="userSpaceOnUse"><circle cx="3" cy="4" r="1" fill="#795d3f"/><circle cx="10" cy="8" r=".8" fill="#ddbd75"/></pattern>
    <pattern id="waterPattern" width="18" height="12" patternUnits="userSpaceOnUse"><path d="M1 4c4-2 8 2 13 0M5 10c3-2 7 1 11-1" stroke="#b6e4dc" stroke-width="1.2" fill="none" opacity=".55"/></pattern>
    <g id="m0"><rect x="3" y="3" width="26" height="26" rx="6" fill="currentColor"/></g>
    <g id="m1"><rect x="3" width="26" height="19" fill="currentColor"/><use href="#m0"/></g>
    <g id="m2"><rect x="13" y="3" width="19" height="26" fill="currentColor"/><use href="#m0"/></g>
    <g id="m3"><rect x="3" width="26" height="19" fill="currentColor"/><rect x="13" y="3" width="19" height="26" fill="currentColor"/><use href="#m0"/></g>
    <g id="m4"><rect x="3" y="13" width="26" height="19" fill="currentColor"/><use href="#m0"/></g>
    <g id="m5"><rect x="3" width="26" height="32" fill="currentColor"/><use href="#m0"/></g>
    <g id="m6"><rect x="13" y="3" width="19" height="26" fill="currentColor"/><rect x="3" y="13" width="26" height="19" fill="currentColor"/><use href="#m0"/></g>
    <g id="m7"><rect x="3" width="26" height="32" fill="currentColor"/><rect x="13" y="3" width="19" height="26" fill="currentColor"/><use href="#m0"/></g>
    <g id="m8"><rect y="3" width="19" height="26" fill="currentColor"/><use href="#m0"/></g>
    <g id="m9"><rect x="3" width="26" height="19" fill="currentColor"/><rect y="3" width="19" height="26" fill="currentColor"/><use href="#m0"/></g>
    <g id="m10"><rect y="3" width="32" height="26" fill="currentColor"/><use href="#m0"/></g>
    <g id="m11"><rect x="3" width="26" height="19" fill="currentColor"/><rect y="3" width="32" height="26" fill="currentColor"/><use href="#m0"/></g>
    <g id="m12"><rect x="3" y="13" width="26" height="19" fill="currentColor"/><rect y="3" width="19" height="26" fill="currentColor"/><use href="#m0"/></g>
    <g id="m13"><rect x="3" width="26" height="32" fill="currentColor"/><rect y="3" width="19" height="26" fill="currentColor"/><use href="#m0"/></g>
    <g id="m14"><rect y="3" width="32" height="26" fill="currentColor"/><rect x="3" y="13" width="26" height="19" fill="currentColor"/><use href="#m0"/></g>
    <g id="m15"><rect width="32" height="32" fill="currentColor"/></g>
  </defs>
  <!-- row 0: grass variants -->
  <g><rect width="32" height="32" fill="url(#grassLight)"/><rect width="32" height="32" fill="url(#grassSpeck)"/></g>
  <g transform="translate(32)"><rect width="32" height="32" fill="url(#grassDark)"/><path d="M6 22l2-6 2 6m14-12 2-5 2 5" stroke="#9abd6c" fill="none"/></g>
  <g transform="translate(64)"><rect width="32" height="32" fill="url(#grassLight)"/><circle cx="8" cy="8" r="1.2" fill="#537d48"/><circle cx="24" cy="21" r="1" fill="#a8c66f"/></g>
  <g transform="translate(96)"><rect width="32" height="32" fill="url(#grassDark)"/><path d="M4 7h8m10 17h7" stroke="#88b067" stroke-width="1" opacity=".38"/></g>
  <!-- rows 1-3: cardinal masks. Column equals NESW mask. -->
  <g transform="translate(0 32)" color="#aaa087"><use href="#m0"/><rect x="5" y="5" width="22" height="22" rx="7" fill="url(#cobblePattern)"/></g>
  <g transform="translate(32 32)" color="#aaa087"><use href="#m1"/><rect x="5" y="1" width="22" height="26" fill="url(#cobblePattern)"/></g>
  <g transform="translate(64 32)" color="#aaa087"><use href="#m2"/><rect x="5" y="5" width="27" height="22" fill="url(#cobblePattern)"/></g>
  <g transform="translate(96 32)" color="#aaa087"><use href="#m3"/><rect x="5" width="27" height="27" fill="url(#cobblePattern)"/></g>
  <g transform="translate(128 32)" color="#aaa087"><use href="#m4"/><rect x="5" y="5" width="22" height="27" fill="url(#cobblePattern)"/></g>
  <g transform="translate(160 32)" color="#aaa087"><use href="#m5"/><rect x="5" width="22" height="32" fill="url(#cobblePattern)"/></g>
  <g transform="translate(192 32)" color="#aaa087"><use href="#m6"/><rect x="5" y="5" width="27" height="27" fill="url(#cobblePattern)"/></g>
  <g transform="translate(224 32)" color="#aaa087"><use href="#m7"/><rect x="5" width="27" height="32" fill="url(#cobblePattern)"/></g>
  <g transform="translate(256 32)" color="#aaa087"><use href="#m8"/><rect y="5" width="27" height="22" fill="url(#cobblePattern)"/></g>
  <g transform="translate(288 32)" color="#aaa087"><use href="#m9"/><rect width="27" height="27" fill="url(#cobblePattern)"/></g>
  <g transform="translate(320 32)" color="#aaa087"><use href="#m10"/><rect y="5" width="32" height="22" fill="url(#cobblePattern)"/></g>
  <g transform="translate(352 32)" color="#aaa087"><use href="#m11"/><rect width="32" height="27" fill="url(#cobblePattern)"/></g>
  <g transform="translate(384 32)" color="#aaa087"><use href="#m12"/><rect y="5" width="27" height="27" fill="url(#cobblePattern)"/></g>
  <g transform="translate(416 32)" color="#aaa087"><use href="#m13"/><rect width="27" height="32" fill="url(#cobblePattern)"/></g>
  <g transform="translate(448 32)" color="#aaa087"><use href="#m14"/><rect y="5" width="32" height="27" fill="url(#cobblePattern)"/></g>
  <g transform="translate(480 32)" color="#aaa087"><use href="#m15"/><rect width="32" height="32" fill="url(#cobblePattern)"/></g>
  <g transform="translate(0 64)" color="#a77d4e"><use href="#m0"/></g><g transform="translate(32 64)" color="#a77d4e"><use href="#m1"/></g><g transform="translate(64 64)" color="#a77d4e"><use href="#m2"/></g><g transform="translate(96 64)" color="#a77d4e"><use href="#m3"/></g><g transform="translate(128 64)" color="#a77d4e"><use href="#m4"/></g><g transform="translate(160 64)" color="#a77d4e"><use href="#m5"/></g><g transform="translate(192 64)" color="#a77d4e"><use href="#m6"/></g><g transform="translate(224 64)" color="#a77d4e"><use href="#m7"/></g><g transform="translate(256 64)" color="#a77d4e"><use href="#m8"/></g><g transform="translate(288 64)" color="#a77d4e"><use href="#m9"/></g><g transform="translate(320 64)" color="#a77d4e"><use href="#m10"/></g><g transform="translate(352 64)" color="#a77d4e"><use href="#m11"/></g><g transform="translate(384 64)" color="#a77d4e"><use href="#m12"/></g><g transform="translate(416 64)" color="#a77d4e"><use href="#m13"/></g><g transform="translate(448 64)" color="#a77d4e"><use href="#m14"/></g><g transform="translate(480 64)" color="#a77d4e"><use href="#m15"/></g>
  <g transform="translate(0 64)"><rect x="5" y="5" width="22" height="22" rx="7" fill="url(#dirtPattern)"/></g><g transform="translate(480 64)"><rect width="32" height="32" fill="url(#dirtPattern)"/></g>
  <g transform="translate(0 96)" color="#438c9d"><use href="#m0"/></g><g transform="translate(32 96)" color="#438c9d"><use href="#m1"/></g><g transform="translate(64 96)" color="#438c9d"><use href="#m2"/></g><g transform="translate(96 96)" color="#438c9d"><use href="#m3"/></g><g transform="translate(128 96)" color="#438c9d"><use href="#m4"/></g><g transform="translate(160 96)" color="#438c9d"><use href="#m5"/></g><g transform="translate(192 96)" color="#438c9d"><use href="#m6"/></g><g transform="translate(224 96)" color="#438c9d"><use href="#m7"/></g><g transform="translate(256 96)" color="#438c9d"><use href="#m8"/></g><g transform="translate(288 96)" color="#438c9d"><use href="#m9"/></g><g transform="translate(320 96)" color="#438c9d"><use href="#m10"/></g><g transform="translate(352 96)" color="#438c9d"><use href="#m11"/></g><g transform="translate(384 96)" color="#438c9d"><use href="#m12"/></g><g transform="translate(416 96)" color="#438c9d"><use href="#m13"/></g><g transform="translate(448 96)" color="#438c9d"><use href="#m14"/></g><g transform="translate(480 96)" color="#438c9d"><use href="#m15"/></g>
  <g transform="translate(0 96)"><rect x="5" y="5" width="22" height="22" rx="7" fill="url(#waterPattern)"/></g><g transform="translate(480 96)"><rect width="32" height="32" fill="url(#water)"/><rect width="32" height="32" fill="url(#waterPattern)"/></g>
  <!-- rows 4-7: forest, meadow, stone, wood variants -->
  <g transform="translate(0 128)"><rect width="32" height="32" fill="#476a45"/><rect width="32" height="32" fill="url(#forestSpeck)"/></g><g transform="translate(32 128)"><rect width="32" height="32" fill="#3f6242"/><circle cx="9" cy="21" r="2" fill="#667f4e"/></g><g transform="translate(64 128)"><rect width="32" height="32" fill="#4f7047"/><path d="m4 8 5 2m15 14 4-3" stroke="#2f513d"/></g><g transform="translate(96 128)"><rect width="32" height="32" fill="#456943"/><circle cx="23" cy="8" r="1" fill="#91a36a"/></g>
  <g transform="translate(0 160)"><rect width="32" height="32" fill="#9abc65"/><path d="M5 25l2-7 2 7m16-13 2-5 1 5" stroke="#d7d37a" fill="none"/></g><g transform="translate(32 160)"><rect width="32" height="32" fill="#91b45f"/><circle cx="9" cy="8" r="1.5" fill="#f0cf6c"/></g><g transform="translate(64 160)"><rect width="32" height="32" fill="#a2c36c"/><path d="M3 15h7m13 10h6" stroke="#779d55"/></g><g transform="translate(96 160)"><rect width="32" height="32" fill="#96b95f"/><circle cx="24" cy="10" r="1" fill="#fff0a0"/></g>
  <g transform="translate(0 192)"><rect width="32" height="32" fill="#747b78"/><path d="M0 12h18l4-5h10M8 32l3-12 9-3" stroke="#555e5d" fill="none" opacity=".45"/></g><g transform="translate(32 192)"><rect width="32" height="32" fill="#7e8480"/><circle cx="9" cy="9" r="2" fill="#666d6b"/></g><g transform="translate(64 192)"><rect width="32" height="32" fill="#6e7674"/><path d="m4 23 9-4 6 4 10-8" stroke="#92958d" fill="none"/></g><g transform="translate(96 192)"><rect width="32" height="32" fill="#777d79"/><circle cx="23" cy="22" r="1.5" fill="#a19a86"/></g>
  <g transform="translate(0 224)"><rect width="32" height="32" fill="#b5895a"/><path d="M0 8h32M0 24h32M7 0v8m16 0v16m-9 0v8" stroke="#815e40" opacity=".5"/></g><g transform="translate(32 224)"><rect width="32" height="32" fill="#ad8054"/><path d="M0 16h32M10 0v16m14 0v16" stroke="#79573b" opacity=".5"/></g>
  <!-- row 8 cave path, row 9 wall, row 10 void/base fallback -->
  <g transform="translate(0 256)" color="#969180"><use href="#m0"/></g><g transform="translate(32 256)" color="#969180"><use href="#m1"/></g><g transform="translate(64 256)" color="#969180"><use href="#m2"/></g><g transform="translate(96 256)" color="#969180"><use href="#m3"/></g><g transform="translate(128 256)" color="#969180"><use href="#m4"/></g><g transform="translate(160 256)" color="#969180"><use href="#m5"/></g><g transform="translate(192 256)" color="#969180"><use href="#m6"/></g><g transform="translate(224 256)" color="#969180"><use href="#m7"/></g><g transform="translate(256 256)" color="#969180"><use href="#m8"/></g><g transform="translate(288 256)" color="#969180"><use href="#m9"/></g><g transform="translate(320 256)" color="#969180"><use href="#m10"/></g><g transform="translate(352 256)" color="#969180"><use href="#m11"/></g><g transform="translate(384 256)" color="#969180"><use href="#m12"/></g><g transform="translate(416 256)" color="#969180"><use href="#m13"/></g><g transform="translate(448 256)" color="#969180"><use href="#m14"/></g><g transform="translate(480 256)" color="#969180"><use href="#m15"/></g>
  <g transform="translate(0 288)" color="#38413f"><use href="#m0"/></g><g transform="translate(32 288)" color="#38413f"><use href="#m1"/></g><g transform="translate(64 288)" color="#38413f"><use href="#m2"/></g><g transform="translate(96 288)" color="#38413f"><use href="#m3"/></g><g transform="translate(128 288)" color="#38413f"><use href="#m4"/></g><g transform="translate(160 288)" color="#38413f"><use href="#m5"/></g><g transform="translate(192 288)" color="#38413f"><use href="#m6"/></g><g transform="translate(224 288)" color="#38413f"><use href="#m7"/></g><g transform="translate(256 288)" color="#38413f"><use href="#m8"/></g><g transform="translate(288 288)" color="#38413f"><use href="#m9"/></g><g transform="translate(320 288)" color="#38413f"><use href="#m10"/></g><g transform="translate(352 288)" color="#38413f"><use href="#m11"/></g><g transform="translate(384 288)" color="#38413f"><use href="#m12"/></g><g transform="translate(416 288)" color="#38413f"><use href="#m13"/></g><g transform="translate(448 288)" color="#38413f"><use href="#m14"/></g><g transform="translate(480 288)" color="#38413f"><use href="#m15"/></g>
  <rect y="320" width="32" height="32" fill="#171b22"/><rect x="32" y="320" width="32" height="32" fill="#222830"/>
  <!-- row 11: transparent decals -->
  <g transform="translate(0 352)"><path d="M8 29c1-8 2-10 5-15m-4 7-5-4m7 0 5-5" stroke="#436f42" stroke-width="2" fill="none"/><circle cx="16" cy="12" r="2" fill="#f1d77a"/></g>
  <g transform="translate(32 352)"><path d="M7 28c4-9 9-12 17-15M13 22l-7-2m12-3 3-7" stroke="#4e7b45" stroke-width="2" fill="none"/></g>
  <g transform="translate(64 352)"><circle cx="9" cy="24" r="2" fill="#e9c45f"/><circle cx="16" cy="20" r="2" fill="#ef9f77"/><circle cx="23" cy="25" r="2" fill="#f3de8b"/><path d="M9 26v4m7-8v8m7-3v3" stroke="#4e7944"/></g>
  <g transform="translate(96 352)"><ellipse cx="10" cy="25" rx="6" ry="3" fill="#64705f"/><ellipse cx="22" cy="27" rx="5" ry="2.5" fill="#7d806f"/></g>
  <g transform="translate(128 352)"><path d="m5 26 7-5 5 4 10-9" stroke="#d7c084" stroke-width="2" fill="none" opacity=".7"/></g>
  <g transform="translate(160 352)"><path d="M2 24c8-3 17 4 28-1" stroke="#a8d8d3" stroke-width="2" fill="none" opacity=".65"/></g>
</svg>
